<svg width="29" height="26" viewBox="0 0 29 26" fill="none" xmlns="http://www.w3.org/2000/svg">
<g clip-path="url(#clip0_6_497)">
<path d="M16.7947 8.63158C17.9258 8.85224 18.9651 9.40535 19.7799 10.2201C20.5947 11.0349 21.1478 12.0743 21.3684 13.2053M16.7947 4C19.1445 4.26104 21.3355 5.31325 23.0083 6.98391C24.681 8.65455 25.7361 10.8443 26 13.1937M21.9474 26C12.0353 26 4 17.9647 4 8.05263C4 7.60543 4.01636 7.16205 4.0485 6.72306C4.08539 6.21924 4.10384 5.96734 4.23586 5.73803C4.34521 5.54812 4.539 5.36801 4.7364 5.27282C4.97473 5.15789 5.2527 5.15789 5.80864 5.15789H9.07079C9.5383 5.15789 9.77206 5.15789 9.97244 5.23484C10.1495 5.30281 10.3071 5.4132 10.4314 5.55633C10.5722 5.71835 10.6521 5.93804 10.8119 6.3774L12.1621 10.0906C12.348 10.6018 12.4409 10.8574 12.4252 11.0999C12.4113 11.3137 12.3382 11.5195 12.2143 11.6943C12.0738 11.8925 11.8406 12.0325 11.3742 12.3123L9.78947 13.2632C11.1811 16.3303 13.6685 18.8209 16.7368 20.2105L17.6877 18.6258C17.9676 18.1593 18.1074 17.9261 18.3057 17.7857C18.4805 17.6618 18.6863 17.5887 18.9001 17.5748C19.1426 17.5591 19.3983 17.652 19.9095 17.8379L23.6226 19.1881C24.0619 19.3479 24.2817 19.4278 24.4437 19.5686C24.5868 19.6929 24.6973 19.8505 24.7651 20.0276C24.8421 20.2279 24.8421 20.4617 24.8421 20.9292V24.1914C24.8421 24.7473 24.8421 25.0253 24.7271 25.2636C24.6319 25.461 24.4519 25.6548 24.262 25.7641C24.0326 25.8961 23.7808 25.9145 23.277 25.9515C22.8379 25.9837 22.3945 26 21.9474 26Z" stroke="#FFF700" stroke-width="2" stroke-linecap="round" stroke-linejoin="round"/>
</g>
<defs>
<clipPath id="clip0_6_497">
<rect width="29" height="26" fill="white"/>
</clipPath>
</defs>
</svg>
