<svg width="100" height="100" viewBox="0 0 100 100" fill="none" xmlns="http://www.w3.org/2000/svg">
<path d="M96.3631 10.8235C94.1252 8.5815 91.0035 7.18482 87.5834 7.18677H81.9098H79.0316H20.9684H18.0922H12.4166C8.99824 7.18482 5.87481 8.58169 3.63692 10.8235C1.39492 13.0614 -0.00195108 16.1848 2.04549e-06 19.6032V26.1065C2.04549e-06 34.1102 4.87285 41.3073 12.3035 44.2794L12.4147 44.3233L25.318 48.2764C25.9598 49.1081 26.6363 49.9223 27.3912 50.7002C32.1836 55.6286 36.8416 58.9379 40.0514 61.6243C41.657 62.9618 42.8797 64.1401 43.5963 65.1424C43.9584 65.6426 44.1979 66.0889 44.3494 66.501C44.499 66.9149 44.5697 67.2942 44.5697 67.7368C44.5697 73.9835 44.5697 70.3735 44.5697 76.6202C44.5697 77.9116 44.3877 79.021 44.085 79.937C43.6232 81.3147 42.9221 82.2477 42.0596 82.884C41.1895 83.5126 40.1051 83.8881 38.6564 83.8938C33.4906 83.8938 33.4408 83.8938 33.4369 83.8938H30.5588V92.8135H69.4412V83.8938H66.5631C66.5631 83.8938 66.5113 83.8938 61.3453 83.8938C60.3795 83.8938 59.5728 83.7194 58.8889 83.4245C57.8674 82.9741 57.076 82.269 56.4533 81.1729C55.8402 80.0788 55.4303 78.5612 55.4303 76.6202C55.4303 70.3735 55.4303 73.9835 55.4303 67.7368C55.432 67.2942 55.5031 66.9149 55.6506 66.501C55.9092 65.7862 56.4668 64.9354 57.4174 63.9411C58.8295 62.4463 61.06 60.7104 63.7195 58.593C66.3789 56.468 69.4621 53.9368 72.6084 50.7004C73.3635 49.9225 74.0416 49.1083 74.6818 48.2766L87.5869 44.3235L87.6963 44.2795C95.1291 41.3075 100 34.1102 100 26.1065V19.6032C100.002 16.1848 98.6068 13.0614 96.3631 10.8235ZM14.3652 38.9045C9.16094 36.7872 5.7541 31.7303 5.7541 26.1065V19.6032C5.75606 17.7559 6.49571 16.1063 7.70469 14.8932C8.92149 13.6821 10.5674 12.9426 12.4166 12.9407H18.0826C18.0768 14.2801 18.0689 15.6213 18.0689 16.9551C18.0729 23.1251 18.2127 29.2108 19.4275 34.9668C19.8645 37.0286 20.4488 39.0463 21.2154 41.0026L14.3652 38.9045ZM35.4947 43.9651C35.4947 43.9651 27.1557 36.1165 27.1557 28.268C27.1557 20.4196 27.1557 13.0614 27.1557 13.0614H35.4947V43.9651ZM94.2477 26.1065C94.2477 31.7303 90.8389 36.7872 85.6346 38.9045L78.7805 41.0026C80.0836 37.6838 80.85 34.1831 81.2965 30.5922C81.8463 26.1622 81.9287 21.5825 81.9307 16.9549C81.9307 15.6213 81.9229 14.2799 81.9172 12.9405H87.5832C89.4324 12.9424 91.0801 13.6819 92.2949 14.893C93.5041 16.1059 94.2457 17.7538 94.2477 19.603V26.1065Z" fill="#FFF700"/>
</svg>
