<svg width="115" height="100" viewBox="0 0 115 100" fill="none" xmlns="http://www.w3.org/2000/svg">
<g clip-path="url(#clip0_4_66)">
<path fill-rule="evenodd" clip-rule="evenodd" d="M3.12583 0H111.874C112.702 0.00258872 113.496 0.348751 114.082 0.962883C114.667 1.57701 114.998 2.40921 115 3.27772V78.842C114.998 79.7105 114.667 80.5427 114.082 81.1568C113.496 81.771 112.702 82.1171 111.874 82.1197H3.12583C2.71411 82.1184 2.30667 82.0321 1.92676 81.8657C1.54685 81.6993 1.20192 81.4561 0.911663 81.1499C0.621404 80.8437 0.391501 80.4806 0.23508 80.0812C0.0786586 79.6819 -0.00121683 79.2541 1.40111e-05 78.8224V3.2581C0.00739885 2.393 0.339686 1.56582 0.924827 0.955913C1.50997 0.34601 2.30079 0.00254783 3.12583 0ZM11.8107 22.7772H19.8967C19.9909 22.7798 20.0837 22.8019 20.1697 22.8424C20.2557 22.8828 20.3332 22.9408 20.3976 23.0129C20.462 23.0851 20.5122 23.1699 20.5451 23.2626C20.578 23.3552 20.593 23.4537 20.5892 23.5525V26.3984C20.5867 26.5945 20.5107 26.7817 20.3776 26.9195C20.2445 27.0572 20.065 27.1345 19.8779 27.1344H11.8107C11.6237 27.1345 11.4442 27.0572 11.3111 26.9195C11.1779 26.7817 11.1019 26.5945 11.0995 26.3984V23.5525C11.1019 23.3564 11.1779 23.1692 11.3111 23.0315C11.4442 22.8937 11.6237 22.8165 11.8107 22.8165V22.7772ZM11.8107 46.6928H40.1115C40.2985 46.6928 40.478 46.7701 40.6112 46.9078C40.7443 47.0456 40.8203 47.2327 40.8228 47.4289V50.314C40.8203 50.5101 40.7443 50.6973 40.6112 50.8351C40.478 50.9728 40.2985 51.0501 40.1115 51.05H11.8107C11.6237 51.0501 11.4442 50.9728 11.3111 50.8351C11.1779 50.6973 11.1019 50.5101 11.0995 50.314V47.4289C11.1019 47.2327 11.1779 47.0456 11.3111 46.9078C11.4442 46.7701 11.6237 46.6928 11.8107 46.6928ZM11.8107 34.5142H29.3303C29.5181 34.5168 29.6976 34.5962 29.8305 34.7355C29.9634 34.8748 30.0391 35.063 30.0415 35.2601V38.1452C30.0367 38.3405 29.9599 38.5263 29.8273 38.6635C29.6947 38.8007 29.5166 38.8788 29.3303 38.8813H11.8107C11.6237 38.8813 11.4442 38.804 11.3111 38.6663C11.1779 38.5285 11.1019 38.3413 11.0995 38.1452V35.2601C11.0995 35.0623 11.1744 34.8725 11.3078 34.7327C11.4412 34.5928 11.6221 34.5142 11.8107 34.5142ZM11.8107 58.8616H52.2404C52.4274 58.8642 52.6059 58.9439 52.7373 59.0835C52.8687 59.2231 52.9423 59.4113 52.9423 59.6075V62.4926C52.9399 62.687 52.8652 62.8728 52.7341 63.0103C52.6029 63.1478 52.4258 63.2261 52.2404 63.2287H11.8107C11.6237 63.2287 11.4442 63.1514 11.3111 63.0137C11.1779 62.8759 11.1019 62.6887 11.0995 62.4926V59.6075C11.0995 59.4097 11.1744 59.2199 11.3078 59.0801C11.4412 58.9402 11.6221 58.8616 11.8107 58.8616ZM43.3215 86.6241H71.6785C71.7533 91.7664 73.7748 96.3788 79.2497 100H35.7503C40.1583 96.6536 43.3403 92.6006 43.3215 86.6241ZM110.91 11.4328V69.5191C110.91 70.2999 110.614 71.0488 110.088 71.6009C109.561 72.153 108.847 72.4632 108.103 72.4632H6.85996C6.12347 72.4503 5.42131 72.1345 4.90485 71.5837C4.3884 71.033 4.09903 70.2915 4.09914 69.5191V11.4328H29.5174V15.2306C29.5174 15.7512 29.7146 16.2504 30.0657 16.6185C30.4167 16.9865 30.8928 17.1933 31.3892 17.1933H34.2436C34.5235 18.5142 34.9672 19.791 35.5632 20.9912L33.3732 23.2973C33.0331 23.6638 32.8427 24.155 32.8427 24.6663C32.8427 25.1777 33.0331 25.6689 33.3732 26.0353L36.0966 28.9009C36.4465 29.2605 36.9169 29.4619 37.4068 29.4619C37.8968 29.4619 38.3672 29.2605 38.7171 28.9009L40.7292 26.7812C41.8349 27.5039 43.0277 28.0683 44.2761 28.4593V31.7174C44.2761 32.2379 44.4733 32.7371 44.8244 33.1052C45.1754 33.4733 45.6515 33.6801 46.1479 33.6801H50.013C50.5095 33.6801 50.9855 33.4733 51.3366 33.1052C51.6876 32.7371 51.8848 32.2379 51.8848 31.7174V28.7733C53.1548 28.4716 54.3796 27.9896 55.5253 27.3405L57.7246 29.6467C58.0741 30.0034 58.5425 30.203 59.0302 30.203C59.5178 30.203 59.9863 30.0034 60.3357 29.6467L63.0685 26.7812C63.4086 26.4147 63.5989 25.9235 63.5989 25.4122C63.5989 24.9008 63.4086 24.4096 63.0685 24.0432L61.0563 21.9333C61.7464 20.7765 62.2877 19.5292 62.666 18.2237H65.7731C66.2695 18.2237 66.7456 18.017 67.0966 17.6489C67.4477 17.2808 67.6449 16.7816 67.6449 16.261V12.208C67.6441 11.9418 67.5932 11.6783 67.4951 11.4328H110.91ZM98.4632 25.4269L101.495 28.6065C101.878 29.0092 102.092 29.5544 102.092 30.1227C102.092 30.691 101.878 31.2361 101.495 31.6389L99.0527 34.2002C99.7353 35.5331 100.245 36.9555 100.569 38.4298H103.723C104.262 38.4375 104.777 38.6671 105.157 39.069C105.537 39.4709 105.751 40.0132 105.754 40.579V45.0736C105.754 45.6436 105.538 46.1902 105.153 46.5933C104.769 46.9963 104.248 47.2228 103.704 47.2228H100.26C99.8417 48.6708 99.2405 50.0537 98.4725 51.3346L100.709 53.6801C101.092 54.0845 101.307 54.6313 101.307 55.2012C101.307 55.7711 101.092 56.3178 100.709 56.7223L97.6957 59.8626C97.3101 60.2641 96.7886 60.4894 96.2451 60.4894C95.7017 60.4894 95.1802 60.2641 94.7945 59.8626L92.3613 57.3013C91.0869 58.017 89.7273 58.5517 88.3183 58.8911V62.208C88.3158 62.7772 88.0991 63.3224 87.7153 63.7249C87.3314 64.1274 86.8116 64.3546 86.2687 64.3572H81.9824C81.4396 64.3546 80.9197 64.1274 80.5359 63.7249C80.1521 63.3224 79.9353 62.7772 79.9329 62.208V58.6261C78.5526 58.1855 77.2341 57.5552 76.0116 56.7517L73.7748 59.0972C73.3892 59.4987 72.8677 59.724 72.3242 59.724C71.7808 59.724 71.2593 59.4987 70.8736 59.0972L67.8508 55.9372C67.4684 55.5344 67.2538 54.9893 67.2538 54.421C67.2538 53.8527 67.4684 53.3076 67.8508 52.9048L70.284 50.3435C69.6092 49.0114 69.1027 47.5929 68.7773 46.1236H65.614C65.0712 46.1211 64.5513 45.8938 64.1675 45.4913C63.7837 45.0888 63.5669 44.5437 63.5645 43.9745V39.4504C63.5645 38.8795 63.7801 38.3319 64.1642 37.9273C64.5483 37.5227 65.0696 37.2941 65.614 37.2915H69.0674C69.4818 35.8418 70.0832 34.4584 70.8549 33.1796L68.6182 30.8342C68.4263 30.6352 68.274 30.3983 68.1701 30.1372C68.0661 29.8761 68.0126 29.596 68.0126 29.3131C68.0126 29.0301 68.0661 28.75 68.1701 28.4889C68.274 28.2278 68.4263 27.9909 68.6182 27.792L71.6411 24.6124C72.0267 24.2108 72.5482 23.9855 73.0917 23.9855C73.6351 23.9855 74.1566 24.2108 74.5423 24.6124L76.9849 27.1737C78.256 26.458 79.6125 25.9233 81.0185 25.5839V22.2767C81.021 21.7075 81.2377 21.1624 81.6215 20.7599C82.0053 20.3574 82.5252 20.1302 83.0681 20.1276H87.3543C87.8972 20.1302 88.4171 20.3574 88.8009 20.7599C89.1847 21.1624 89.4014 21.7075 89.4039 22.2767V25.8979C90.7849 26.3366 92.1037 26.967 93.3252 27.7723L95.562 25.4269C95.9476 25.0254 96.4691 24.8 97.0126 24.8C97.556 24.8 98.0775 25.0254 98.4632 25.4269ZM55.8154 11.4328C56.1573 12.6229 56.2289 13.8805 56.0245 15.1048C55.8201 16.3292 55.3454 17.4864 54.6384 18.4841C53.9313 19.4817 53.0115 20.2921 51.9524 20.8504C50.8933 21.4087 49.7244 21.6995 48.539 21.6995C47.3537 21.6995 46.1847 21.4087 45.1257 20.8504C44.0666 20.2921 43.1468 19.4817 42.4397 18.4841C41.7327 17.4864 41.2579 16.3292 41.0536 15.1048C40.8492 13.8805 40.9208 12.6229 41.2626 11.4328H55.8154ZM84.6684 33.4249C86.3343 33.4249 87.9627 33.9429 89.3479 34.9134C90.733 35.8839 91.8126 37.2633 92.4501 38.8772C93.0876 40.4911 93.2544 42.2669 92.9294 43.9802C92.6044 45.6935 91.8022 47.2672 90.6243 48.5024C89.4463 49.7376 87.9455 50.5788 86.3116 50.9196C84.6777 51.2604 82.9842 51.0855 81.4451 50.417C79.906 49.7485 78.5906 48.6165 77.665 47.164C76.7395 45.7116 76.2455 44.004 76.2455 42.2571C76.2455 39.9147 77.1329 37.6682 78.7125 36.0118C80.2921 34.3555 82.4345 33.4249 84.6684 33.4249ZM106.502 4.82826C106.872 4.82826 107.234 4.94337 107.542 5.15904C107.85 5.3747 108.09 5.68124 108.232 6.03988C108.373 6.39851 108.41 6.79315 108.338 7.17388C108.266 7.55461 108.088 7.90433 107.826 8.17882C107.564 8.45331 107.231 8.64024 106.867 8.71597C106.504 8.7917 106.128 8.75283 105.786 8.60428C105.444 8.45572 105.152 8.20416 104.946 7.88139C104.74 7.55863 104.631 7.17916 104.631 6.79097C104.631 6.27043 104.828 5.77121 105.179 5.40313C105.53 5.03505 106.006 4.82826 106.502 4.82826ZM93.9242 4.82826C94.2944 4.82826 94.6562 4.94337 94.9641 5.15904C95.2719 5.3747 95.5118 5.68124 95.6534 6.03988C95.7951 6.39851 95.8322 6.79315 95.7599 7.17388C95.6877 7.55461 95.5095 7.90433 95.2477 8.17882C94.9859 8.45331 94.6524 8.64024 94.2893 8.71597C93.9263 8.7917 93.5499 8.75283 93.2079 8.60428C92.8659 8.45572 92.5735 8.20416 92.3679 7.88139C92.1622 7.55863 92.0524 7.17916 92.0524 6.79097C92.0524 6.27043 92.2496 5.77121 92.6006 5.40313C92.9517 5.03505 93.4278 4.82826 93.9242 4.82826ZM100.213 4.82826C100.583 4.82826 100.945 4.94337 101.253 5.15904C101.561 5.3747 101.801 5.68124 101.942 6.03988C102.084 6.39851 102.121 6.79315 102.049 7.17388C101.977 7.55461 101.799 7.90433 101.537 8.17882C101.275 8.45331 100.941 8.64024 100.578 8.71597C100.215 8.7917 99.839 8.75283 99.4969 8.60428C99.1549 8.45572 98.8626 8.20416 98.6569 7.88139C98.4513 7.55863 98.3415 7.17916 98.3415 6.79097C98.3415 6.27043 98.5387 5.77121 98.8897 5.40313C99.2407 5.03505 99.7168 4.82826 100.213 4.82826Z" fill="#FFF700"/>
</g>
<defs>
<clipPath id="clip0_4_66">
<rect width="115" height="100" fill="white"/>
</clipPath>
</defs>
</svg>
