<svg width="20" height="12" viewBox="0 0 20 12" fill="none" xmlns="http://www.w3.org/2000/svg">
<g clip-path="url(#clip0_6_486)">
<path d="M1.62413 13.3654C0.0234936 13.3654 1.59815 11.8216 1.59815 11.8216L5.67902 7.55881C6.07593 7.14436 6.84185 6.51506 7.28967 6.86221C7.73742 7.20929 8.33543 7.91267 8.7519 8.30952L9.59583 9.11236C10.0482 9.49298 10.3963 9.11236 10.3963 9.11236L11.2598 8.3038C11.6798 7.91031 12.2814 7.22385 12.7298 6.90451C13.1783 6.58516 13.9411 7.19244 14.3369 7.60788L18.3939 11.8687C19.9952 13.3654 18.4198 13.3654 18.4198 13.3654H1.62413V13.3654ZM2.31683 9.85829C1.91993 10.2731 1.34011 10.9943 0.948249 11.4132C0.505798 11.8859 0 12.2448 0 11.4169L0.0192398 3.10067C0.0206795 2.54005 0.00431914 1.47098 0.407243 1.66281C0.557104 1.73422 0.762133 1.8827 1.04046 2.14761L4.3429 4.71581C4.79923 5.07073 5.44239 5.50509 5.65278 5.79439C5.78556 5.97676 5.84642 6.18887 5.65422 6.37224L2.31683 9.85829ZM11.2182 6.90376C10.7623 7.25931 10.2667 7.76376 10.0137 7.76445C9.76061 7.76476 9.25586 7.27187 8.79777 6.91862L1.61209 1.3783C1.154 1.02543 0.364902 0.314648 0.757094 0.124123C1.04039 -0.0135916 1.53552 -0.0112279 1.53552 -0.0112279H18.4214C19.9416 -0.0112279 19.1685 0.70229 19.1685 0.70229L11.2182 6.90376ZM19.0507 11.4132C18.6581 10.9947 18.0779 10.2731 17.6814 9.85829L14.3459 6.37187C14.1527 6.1885 14.2131 5.97639 14.3459 5.79401C14.5562 5.50478 15.1998 5.07067 15.6565 4.71581L18.1331 2.7901C18.5895 2.43517 19.1896 1.85464 19.5922 1.66281C19.9948 1.47098 19.9773 2.54042 19.9787 3.10067L20.0001 11.4169C20.0003 12.2448 19.4938 11.8859 19.0507 11.4132Z" fill="#FFF700"/>
</g>
<defs>
<clipPath id="clip0_6_486">
<rect width="20" height="12" fill="white"/>
</clipPath>
</defs>
</svg>
