<svg width="130" height="100" viewBox="0 0 130 100" fill="none" xmlns="http://www.w3.org/2000/svg">
<path d="M126.302 13.6874V50.7195C126.302 50.7195 118.49 52.2662 116.875 52.484C115.261 52.7018 110.247 54.3356 106.588 50.7849C100.949 45.2083 80.9549 25.0584 80.9549 25.0584C79.6981 24.0242 78.1484 23.4222 76.5307 23.34C74.913 23.2577 73.3114 23.6994 71.9586 24.601C66.8794 27.3021 59.3251 31.2885 56.1828 32.8352C55.1232 33.4621 53.9238 33.8067 52.6969 33.8365C51.4699 33.8664 50.2555 33.5807 49.1674 33.0061C48.0792 32.4315 47.153 31.5868 46.4753 30.5511C45.7976 29.5154 45.3907 28.3226 45.2926 27.0843C45.3615 25.6748 45.8223 24.3136 46.6219 23.1575C47.4214 22.0013 48.5273 21.0972 49.8122 20.5492C56.9791 16.1925 72.1093 7.47904 78.4153 4.16793C82.2462 1.98956 85.0011 1.98956 90.274 6.34629C96.7522 11.9882 102.628 16.9331 102.628 16.9331C103.324 17.4355 104.119 17.7793 104.958 17.941C105.798 18.1027 106.662 18.0784 107.492 17.8698C114.745 16.345 126.302 13.6874 126.302 13.6874ZM46.67 76.2499C47.1572 75.1183 47.3179 73.8702 47.1333 72.65C46.9488 71.4298 46.4265 70.2875 45.6271 69.3553C44.8277 68.4231 43.7837 67.7391 42.6161 67.3825C41.4485 67.0259 40.205 67.0113 39.0296 67.3404C39.3863 66.2246 39.4469 65.0333 39.2051 63.8863C38.9633 62.7393 38.4278 61.6767 37.6522 60.8054C36.8079 59.9904 35.7689 59.4115 34.6371 59.1251C33.5053 58.8387 32.3194 58.8547 31.1955 59.1716C31.5494 58.0538 31.6065 56.8615 31.3609 55.7144C31.1154 54.5672 30.5758 53.5057 29.7966 52.6365C28.4017 51.3325 26.5585 50.6321 24.6604 50.685C22.7623 50.7379 20.9599 51.5399 19.6381 52.9197C16.668 55.7951 14.7525 61.0232 17.4859 64.1165C20.2192 67.2097 23.1677 65.3146 25.4921 64.77C24.8465 67.1008 22.9095 69.2792 25.2984 72.3289C27.6874 75.3786 30.9803 73.527 33.3047 72.9824C32.659 75.3132 30.8081 77.6877 33.0895 80.5195C35.3708 83.3514 39.2018 81.8483 41.6984 81.0641C40.7299 83.5692 38.6637 86.2704 41.311 89.3201C43.9582 92.3698 50.092 90.9539 53.0836 88.0567C54.5029 86.7902 55.368 85.0056 55.489 83.0944C55.61 81.1832 54.9772 79.3015 53.7293 77.8619C52.819 76.9524 51.6751 76.3193 50.4273 76.0343C49.1796 75.7494 47.8779 75.8241 46.67 76.2499ZM101.229 57.0368L78.1355 33.7719C77.0674 32.7607 75.7336 32.0831 74.2943 31.8203C72.855 31.5575 71.3714 31.7208 70.0216 32.2906C66.7933 33.7283 62.6395 35.6888 59.4972 37.1701C57.3342 38.4739 54.9192 39.2912 52.4164 39.5663C49.7909 39.5916 47.2292 38.7469 45.1223 37.161C43.0154 35.5752 41.479 33.3352 40.7473 30.7829C40.0157 28.2306 40.1291 25.5061 41.0702 23.0252C42.0114 20.5442 43.7285 18.443 45.9598 17.042C50.9744 13.5785 61.9292 7.63152 61.9292 7.63152C60.5507 6.16459 58.8757 5.01599 57.0186 4.26411C55.1615 3.51223 53.1659 3.17478 51.1681 3.2748C43.8075 3.2748 28.3976 13.5131 28.3976 13.5131C26.7672 14.3753 24.9637 14.849 23.1248 14.8981C21.2859 14.9472 19.4602 14.5703 17.7872 13.7963L5.77777 9.57027V51.8305C5.77777 51.8305 9.1998 52.8325 12.2344 54.0089C12.9238 51.9749 14.0736 50.1323 15.5919 48.6283C18.0412 46.2497 21.2974 44.9108 24.6916 44.8865C28.0859 44.8622 31.3605 46.1544 33.8427 48.4976C35.2239 49.941 36.2168 51.7183 36.7267 53.6603C38.5936 54.2485 40.2871 55.2964 41.6553 56.71C43.0415 58.1803 44.0277 59.989 44.5178 61.9599C46.4857 62.578 48.2588 63.7081 49.66 65.2371C51.0612 66.7662 52.0414 68.6407 52.5025 70.6733C54.4575 71.2367 56.2316 72.311 57.6463 73.7884C58.9666 75.1859 59.9431 76.8786 60.4965 78.7293C61.0499 80.5799 61.1647 82.5366 60.8316 84.4406C60.8316 84.4406 62.5534 86.4011 63.608 87.4685C64.6012 88.4738 65.9482 89.0385 67.3528 89.0385C68.7574 89.0385 70.1045 88.4738 71.0977 87.4685C72.0909 86.4632 72.6489 85.0998 72.6489 83.6782C72.6489 82.2565 72.0909 80.8931 71.0977 79.8878C71.0977 79.8878 75.4022 85.2901 80.3092 82.0662C84.6137 79.0164 83.9465 75.4004 81.9019 73.3527C82.526 74.1048 83.3006 74.7145 84.1745 75.1415C85.0485 75.5684 86.0019 75.8031 86.972 75.8298C87.9421 75.8566 88.9068 75.6749 89.8024 75.2967C90.698 74.9185 91.5043 74.3525 92.168 73.6359C93.0918 72.6888 93.6326 71.4264 93.6844 70.0965C93.7362 68.7666 93.2951 67.4651 92.4477 66.4473C92.4477 66.4473 95.3102 70.3901 101.057 66.7087C105.124 63.2233 103.209 59.2369 101.057 57.1457L101.229 57.0368Z" fill="#FFF700"/>
</svg>
