<svg width="40" height="39" viewBox="0 0 40 39" fill="none" xmlns="http://www.w3.org/2000/svg">
<g clip-path="url(#clip0_5_404)">
<path d="M22.9915 30.9457C22.423 31.492 21.8197 32.0339 21.1816 32.5715L21.3574 32.5423L21.9076 32.4447C22.4062 32.3439 22.8995 32.218 23.3854 32.0675L23.4961 32.035L23.8444 32.7796L24.235 33.6186L23.8867 33.7291C23.343 33.8978 22.7911 34.0389 22.2331 34.1518C21.6732 34.2667 21.1035 34.3523 20.5241 34.4087C19.9447 34.464 19.3555 34.4932 18.7598 34.4932C18.1641 34.4932 17.5814 34.464 17.002 34.4087C16.4225 34.3534 15.8561 34.2656 15.293 34.1518C14.7434 34.0449 14.2001 33.9081 13.6654 33.7421C13.1298 33.5768 12.6029 33.3848 12.0866 33.1666H12.0443L12.015 33.1471C11.5072 32.9303 11.0135 32.6908 10.5339 32.4285C10.0358 32.1618 9.55729 31.8692 9.08854 31.5603C8.63687 31.2593 8.20218 30.9337 7.78646 30.5848C7.35352 30.2304 6.94336 29.8564 6.54948 29.4662C6.15866 29.0824 5.78918 28.6775 5.44271 28.2534C5.09489 27.828 4.76895 27.3852 4.46615 26.9267C4.14698 26.4639 3.85147 25.9853 3.58073 25.4927C3.48633 25.3204 3.39518 25.1448 3.30729 24.9692H20.625C20.6533 25.3007 20.7188 25.6279 20.8203 25.9447C20.8496 26.0325 20.8789 26.1236 20.9147 26.2114L21.1165 26.7056H19.6387V31.6188C20.5762 30.8384 21.4421 30.0548 22.2428 29.2679C22.4935 29.8272 22.7507 30.3864 23.0078 30.9457H22.9915ZM1.95312 21.1811L0 13.3317H2.82552L3.72396 18.1181H3.78581L4.78841 13.3317H7.53255L8.57747 18.0758H8.63607L9.4987 13.3317H12.321L10.3678 21.1843H7.30794L6.20117 16.9572H6.11979L5.01628 21.1843L1.95312 21.1811ZM14.5605 21.1811L12.6107 13.3317H15.4329L16.3346 18.1181H16.3965L17.3991 13.3317H20.1432L21.1882 18.0758H21.2467L22.1061 13.3317H24.9316L22.9785 21.1843H19.9154L18.8118 16.9572H18.7305L17.6237 21.1843L14.5605 21.1811ZM27.1712 21.1811L25.2214 13.3317H28.0436L28.9453 18.1181H29.0039L30.0098 13.3317H32.7539L33.7988 18.0758H33.8542L34.7168 13.3317H37.5423L35.5892 21.1843H32.526L31.4225 16.9572H31.3411L30.2344 21.1843L27.1712 21.1811ZM37.9525 37.5985C37.8672 37.6813 37.768 37.7484 37.6595 37.7969C37.5512 37.8447 37.4357 37.8743 37.3177 37.8847C37.1826 37.8957 37.0465 37.8802 36.9173 37.8392C36.7884 37.7994 36.6689 37.7342 36.5658 37.6473L33.6654 35.1891L32.6888 37.6311C32.6079 37.8274 32.5087 38.0157 32.3926 38.1936C32.2849 38.3546 32.1581 38.502 32.015 38.6326C31.8883 38.7631 31.7335 38.8629 31.5624 38.9246C31.3912 38.9862 31.2082 39.008 31.0273 38.9882C30.8464 38.9685 30.6725 38.9077 30.5187 38.8106C30.3649 38.7134 30.2354 38.5825 30.14 38.4277C30.0493 38.3004 29.9718 38.1643 29.9089 38.0213C28.1608 33.6576 25.8203 29.3069 24.0885 24.9335C24.036 24.8043 24.0192 24.6634 24.0399 24.5255C24.0606 24.3876 24.1181 24.2578 24.2063 24.1497C24.2945 24.0416 24.4102 23.9592 24.5413 23.9112C24.6723 23.8632 24.8139 23.8513 24.9512 23.8767C29.1471 24.6538 34.5801 26.4227 38.8477 27.5543C40.1725 27.9022 40.3874 29.0695 39.4076 29.9735C39.2526 30.1183 39.0823 30.2459 38.8997 30.3539C38.1478 30.7799 37.3861 31.2709 36.6439 31.7229L39.5313 34.1941C39.6344 34.2851 39.7185 34.3956 39.7786 34.5193V34.5388C39.835 34.6537 39.8682 34.7785 39.8763 34.9062C39.8836 35.0356 39.8693 35.1652 39.834 35.2899C39.7948 35.4163 39.7343 35.5351 39.6549 35.6411C39.1306 36.322 38.5687 36.9734 37.972 37.592L37.9525 37.5985ZM37.207 36.6393L38.6035 35.0135C37.9883 34.4835 35.3646 32.4415 35.0781 31.9472C35.0005 31.8114 34.9791 31.6506 35.0187 31.4993C35.0582 31.348 35.1555 31.2181 35.2897 31.1376C36.2012 30.6303 37.3796 29.9215 38.2454 29.3427C38.3542 29.2787 38.4566 29.2047 38.5514 29.1216C38.6234 29.0573 38.6869 28.9841 38.7402 28.9037L38.7793 28.8289L38.7012 28.7834C38.6403 28.7563 38.5771 28.7345 38.5124 28.7184L25.5273 25.2684L30.9831 37.5465C31.0102 37.6062 31.0418 37.6638 31.0775 37.7189L31.1328 37.7904L31.2012 37.7416C31.2734 37.6773 31.336 37.6028 31.3867 37.5205C31.4537 37.418 31.5104 37.309 31.556 37.1953C31.9661 36.1938 32.4284 34.8282 32.9069 33.9047L32.9655 33.8234C33.0161 33.7638 33.078 33.7148 33.1477 33.6791C33.2173 33.6434 33.2933 33.6218 33.3713 33.6155C33.4492 33.6091 33.5277 33.6182 33.6022 33.6422C33.6767 33.6661 33.7457 33.7045 33.8053 33.7551L37.2201 36.6458L37.207 36.6393ZM16.3704 32.5813C15.3259 31.6988 14.3315 30.7587 13.3919 29.7654C12.4782 28.8056 11.6381 27.7784 10.8789 26.6926H6.42578C6.60807 26.9365 6.80013 27.1706 6.9987 27.3982C7.24609 27.6843 7.50651 27.964 7.77669 28.2339C8.13043 28.5894 8.49718 28.921 8.87695 29.2289C9.25782 29.5425 9.65438 29.8366 10.0651 30.1101C10.4788 30.3923 10.9069 30.6528 11.3477 30.8904C11.7817 31.1311 12.2439 31.3478 12.7344 31.5408H12.7604H12.7799C13.2389 31.7326 13.7077 31.905 14.1829 32.0513C14.6662 32.2019 15.1574 32.3257 15.6543 32.422C15.8366 32.4577 16.0221 32.4902 16.2044 32.5195L16.3704 32.5455V32.5813ZM6.40625 7.8039H11.1361C11.8903 6.73088 12.7146 5.70873 13.6035 4.74412C14.5203 3.74212 15.4873 2.78709 16.5007 1.88269L16.25 1.91846C16.0449 1.95098 15.8431 1.98674 15.6445 2.02901C15.1436 2.12943 14.6482 2.25532 14.1602 2.4062C13.6731 2.55578 13.1949 2.73274 12.7279 2.93622C12.2483 3.13999 11.7882 3.35676 11.3477 3.58654C10.9071 3.81632 10.4731 4.07429 10.0456 4.36043C9.63485 4.63388 9.23828 4.92799 8.85742 5.24162C8.47656 5.55053 8.11198 5.89195 7.75716 6.23662C7.48698 6.5065 7.22656 6.78614 6.97917 7.07229C6.77734 7.30315 6.58203 7.54052 6.39648 7.78764L6.40625 7.8039ZM21.0547 1.8957C22.1159 2.84734 23.0783 3.79682 23.9421 4.74412C24.8311 5.70783 25.6543 6.73005 26.4063 7.8039H31.1263C30.944 7.56328 30.752 7.32591 30.5534 7.0983C30.3092 6.81541 30.0456 6.53577 29.7721 6.26263C29.4184 5.90929 29.0527 5.57762 28.6751 5.26763C28.2945 4.95374 27.8979 4.65962 27.487 4.38644C27.0768 4.11114 26.6493 3.85318 26.2044 3.61256C25.7596 3.37194 25.2973 3.15299 24.8177 2.95573L24.7884 2.92646C24.3262 2.73462 23.8574 2.56228 23.3822 2.41596C22.8945 2.26636 22.399 2.14369 21.8978 2.04852C21.6895 2.00625 21.4844 1.97049 21.2858 1.95098L21.0579 1.91521L21.0547 1.8957ZM15.2995 0.341421C15.8594 0.22653 16.429 0.140904 17.0085 0.0845423C17.5781 0.0292646 18.1771 0 18.7695 0C19.362 0 19.9479 0.0292646 20.5306 0.0845423C21.1133 0.13982 21.6764 0.227614 22.2396 0.341421C22.7891 0.449873 23.3324 0.587723 23.8672 0.754377C24.4061 0.919306 24.9363 1.1114 25.4557 1.32992H25.4915L25.5208 1.34617C26.0286 1.57595 26.5278 1.82091 27.0182 2.08104C27.513 2.35093 27.9948 2.64032 28.457 2.94597C28.9081 3.24773 29.3428 3.57335 29.7591 3.92146C30.1931 4.2748 30.6044 4.64766 30.9928 5.04002C31.3829 5.42458 31.7523 5.82942 32.0996 6.25288C32.4474 6.67828 32.7734 7.12107 33.0762 7.57954C33.4017 8.04127 33.6751 8.51601 33.9421 9.007C34.0365 9.17934 34.1276 9.35493 34.2155 9.53052H3.29102C3.38216 9.35493 3.47331 9.17609 3.56771 9.00375C3.83464 8.51276 4.12435 8.02826 4.42708 7.57954C4.72982 7.13082 5.05534 6.68859 5.40365 6.27889C5.75195 5.86918 6.13281 5.43347 6.52344 5.04327C6.90925 4.65454 7.3145 4.28555 7.73763 3.93772C8.16483 3.59054 8.60918 3.26497 9.06901 2.96223C9.528 2.63707 10.0065 2.36393 10.4948 2.10055C10.9831 1.83717 11.5202 1.57704 12.0443 1.35593C12.5757 1.12931 13.119 0.931757 13.6719 0.764132C14.207 0.596269 14.7502 0.45519 15.2995 0.341421ZM19.6387 2.96223V7.8039H24.2708C23.6214 6.96686 22.9293 6.16373 22.1973 5.3977C21.4225 4.58913 20.5697 3.77405 19.6387 2.95248V2.96223ZM17.9036 31.6188V26.6926H13.0208C13.6937 27.5554 14.4188 28.3764 15.1921 29.1508C16.0539 30.0184 16.9589 30.8421 17.9036 31.6188ZM17.9036 7.8039V2.96223C16.9727 3.78164 16.1198 4.59671 15.3451 5.40745C14.6133 6.17032 13.9212 6.97019 13.2715 7.8039H17.9036Z" fill="#FFF700"/>
</g>
<defs>
<clipPath id="clip0_5_404">
<rect width="40" height="39" fill="white"/>
</clipPath>
</defs>
</svg>
