<svg width="21" height="21" viewBox="0 0 21 21" fill="none" xmlns="http://www.w3.org/2000/svg">
<path d="M10.4998 0C6.48146 0 3.2124 3.26954 3.2124 7.28793C3.2124 11.156 9.82434 20.1931 10.1059 20.5758L10.3686 20.9334C10.3993 20.9754 10.4483 21 10.4998 21C10.552 21 10.6006 20.9754 10.6317 20.9334L10.8943 20.5758C11.176 20.1931 17.7877 11.156 17.7877 7.28793C17.7877 3.26954 14.5182 0 10.4998 0ZM10.4998 4.67741C11.9395 4.67741 13.1103 5.84822 13.1103 7.28793C13.1103 8.7269 11.9395 9.89846 10.4998 9.89846C9.06084 9.89846 7.88923 8.7269 7.88923 7.28793C7.88923 5.84822 9.06078 4.67741 10.4998 4.67741Z" fill="#FFF700"/>
</svg>
