<svg width="25" height="24" viewBox="0 0 25 24" fill="none" xmlns="http://www.w3.org/2000/svg">
<path d="M12.0117 0.0111847C10.9499 0.0899347 10.0284 0.326185 9.1232 0.757435C6.92629 1.79993 5.45558 3.77244 5.17487 6.04681C5.10977 6.56619 5.13012 7.30306 5.21962 7.83743C5.54102 9.71993 6.7005 11.3849 8.43158 12.4443C11.1045 14.0793 14.6155 13.9293 17.1175 12.0731C18.3787 11.1356 19.2656 9.85493 19.65 8.40931C19.8067 7.82056 19.8575 7.42118 19.8575 6.78743C19.8575 5.98869 19.7396 5.32493 19.467 4.58806C18.5557 2.12431 16.1859 0.36181 13.3543 0.0449347C13.102 0.0168097 12.2335 -0.00381531 12.0117 0.0111847Z" fill="white"/>
<path d="M5.66302 13.5863C5.05073 13.9819 4.5727 14.3475 4.01941 14.85C2.9474 15.8213 2.14593 16.8394 1.46652 18.0938C0.534865 19.8131 0.0629363 21.5756 0.00597946 23.5369L-0.00622559 24H12.4958H24.9999V23.7319C24.9978 21.5869 24.3347 19.3125 23.1691 17.4469C22.1927 15.885 20.7891 14.4769 19.2777 13.5394L19.1191 13.4419L19.0336 13.5075C18.9869 13.5431 18.8668 13.6388 18.7651 13.7156C17.5528 14.6588 16.0048 15.345 14.4303 15.6356C13.7468 15.7631 13.1996 15.8119 12.4999 15.8119C11.971 15.8119 11.6415 15.7913 11.1573 15.7294C9.33877 15.4931 7.61379 14.7863 6.22852 13.71C6.11257 13.62 5.98645 13.5244 5.94984 13.4963L5.88474 13.4438L5.66302 13.5863Z" fill="white"/>
</svg>
