<svg width="26" height="28" viewBox="0 0 26 28" fill="none" xmlns="http://www.w3.org/2000/svg">
<path d="M20.3632 0H5.63744C4.00223 0 2.67725 1.42754 2.67725 3.1879V24.8121C2.67725 26.5725 4.00223 28 5.63744 28H20.3621C21.9973 28 23.3222 26.5725 23.3222 24.8121V3.1879C23.3234 1.42754 21.9967 0 20.3632 0ZM5.45154 10.7464C5.45154 9.99918 6.01457 9.39412 6.70726 9.39412H7.14655C6.67825 8.83687 6.39052 8.09983 6.39052 7.28755C6.39052 5.55142 7.69833 4.14364 9.31045 4.14364C10.9238 4.14364 12.2304 5.55078 12.2304 7.28819C12.2304 8.09919 11.9427 8.83687 11.4732 9.39412H11.8929C12.5868 9.39412 13.1486 9.99918 13.1486 10.7464V13.0277C13.1486 13.7431 12.6306 14.322 11.9794 14.3704H6.62082C5.96958 14.322 5.45154 13.7431 5.45154 13.0277V10.7464ZM19.3645 23.8557H6.63562C5.98201 23.8557 5.45154 23.2845 5.45154 22.5806C5.45154 21.8767 5.98201 21.3054 6.63562 21.3054H19.3645C20.0181 21.3054 20.5485 21.8767 20.5485 22.5806C20.5485 23.2845 20.0181 23.8557 19.3645 23.8557ZM19.3645 19.0739H6.63562C5.98201 19.0739 5.45154 18.5026 5.45154 17.7987C5.45154 17.0948 5.98201 16.5235 6.63562 16.5235H19.3645C20.0181 16.5235 20.5485 17.0948 20.5485 17.7987C20.5485 18.5026 20.0181 19.0739 19.3645 19.0739ZM19.3645 14.292H15.5162C14.8626 14.292 14.3321 13.7207 14.3321 13.0169C14.3321 12.313 14.8626 11.7417 15.5162 11.7417H19.3645C20.0181 11.7417 20.5485 12.313 20.5485 13.0169C20.5485 13.7207 20.0181 14.292 19.3645 14.292Z" fill="white"/>
</svg>
