<svg width="22" height="28" viewBox="0 0 22 28" fill="none" xmlns="http://www.w3.org/2000/svg">
<path d="M18.3632 0H3.63744C2.00223 0 0.677246 1.42754 0.677246 3.1879V24.8121C0.677246 26.5725 2.00223 28 3.63744 28H18.3621C19.9973 28 21.3222 26.5725 21.3222 24.8121V3.1879C21.3234 1.42754 19.9967 0 18.3632 0ZM3.45154 10.7464C3.45154 9.99918 4.01457 9.39412 4.70726 9.39412H5.14655C4.67825 8.83687 4.39052 8.09983 4.39052 7.28755C4.39052 5.55142 5.69833 4.14364 7.31045 4.14364C8.92376 4.14364 10.2304 5.55078 10.2304 7.28819C10.2304 8.09919 9.94266 8.83687 9.47317 9.39412H9.89293C10.5868 9.39412 11.1486 9.99918 11.1486 10.7464V13.0277C11.1486 13.7431 10.6306 14.322 9.97937 14.3704H4.62082C3.96958 14.322 3.45154 13.7431 3.45154 13.0277V10.7464ZM17.3645 23.8557H4.63562C3.98201 23.8557 3.45154 23.2845 3.45154 22.5806C3.45154 21.8767 3.98201 21.3054 4.63562 21.3054H17.3645C18.0181 21.3054 18.5485 21.8767 18.5485 22.5806C18.5485 23.2845 18.0181 23.8557 17.3645 23.8557ZM17.3645 19.0739H4.63562C3.98201 19.0739 3.45154 18.5026 3.45154 17.7987C3.45154 17.0948 3.98201 16.5235 4.63562 16.5235H17.3645C18.0181 16.5235 18.5485 17.0948 18.5485 17.7987C18.5485 18.5026 18.0181 19.0739 17.3645 19.0739ZM17.3645 14.292H13.5162C12.8626 14.292 12.3321 13.7207 12.3321 13.0169C12.3321 12.313 12.8626 11.7417 13.5162 11.7417H17.3645C18.0181 11.7417 18.5485 12.313 18.5485 13.0169C18.5485 13.7207 18.0181 14.292 17.3645 14.292Z" fill="#0051FF"/>
</svg>
