<svg width="22" height="22" viewBox="0 0 22 22" fill="none" xmlns="http://www.w3.org/2000/svg">
<path d="M21.2655 1.64941H3.67239C3.26865 1.64941 2.93791 1.97585 2.93791 2.38389V3.11837H2.20344C1.79969 3.11837 1.46896 3.44481 1.46896 3.85285V4.58733H0.734479C0.33073 4.58733 0 4.91376 0 5.32181V19.6162C0 20.02 0.326435 20.3507 0.734479 20.3507H18.3276C18.7314 20.3507 19.0621 20.0243 19.0621 19.6162V18.8817H19.7966C20.2003 18.8817 20.531 18.5553 20.531 18.1473V17.4128H21.2655C21.6693 17.4128 22 17.0864 22 16.6783V2.38389C22 1.97585 21.6736 1.64941 21.2655 1.64941ZM18.3319 13.5042L16.4119 11.305C16.2659 11.1375 16.0082 11.1375 15.8579 11.305L13.5385 13.9594L7.21593 8.34133C7.07849 8.21677 6.86802 8.21677 6.73057 8.34133L0.743069 13.6631V5.6826C0.743069 5.48073 0.906287 5.31751 1.10816 5.31751H17.9668C18.1687 5.31751 18.3319 5.48073 18.3319 5.6826V13.5042ZM19.4358 18.143H19.0707V5.31322C19.0707 4.90947 18.7442 4.57874 18.3362 4.57874H2.20773V4.21365C2.20773 4.01177 2.37095 3.84855 2.57282 3.84855H19.4315C19.6333 3.84855 19.7966 4.01177 19.7966 4.21365L19.8009 17.7779C19.8009 17.9798 19.6376 18.143 19.4358 18.143ZM20.9004 16.674H20.5353V3.84855C20.5353 3.44481 20.2089 3.11408 19.8009 3.11408H3.67239V2.74898C3.67239 2.54711 3.83561 2.38389 4.03749 2.38389H20.8961C21.098 2.38389 21.2612 2.54711 21.2612 2.74898V16.3089H21.2655C21.2655 16.5108 21.1023 16.674 20.9004 16.674Z" fill="#0051FF"/>
<path d="M13.2034 7.51233C12.3959 7.51233 11.7388 8.16949 11.7388 8.97699C11.7388 9.78449 12.3959 10.4417 13.2034 10.4417C14.0109 10.4417 14.6681 9.78449 14.6681 8.97699C14.6681 8.16949 14.0109 7.51233 13.2034 7.51233Z" fill="#0051FF"/>
</svg>
