<svg width="22" height="20" viewBox="0 0 22 20" fill="none" xmlns="http://www.w3.org/2000/svg">
<path d="M21.2655 0.649414H3.67239C3.26865 0.649414 2.93791 0.975849 2.93791 1.38389V2.11837H2.20344C1.79969 2.11837 1.46896 2.44481 1.46896 2.85285V3.58733H0.734479C0.33073 3.58733 0 3.91376 0 4.32181V18.6162C0 19.02 0.326435 19.3507 0.734479 19.3507H18.3276C18.7314 19.3507 19.0621 19.0243 19.0621 18.6162V17.8817H19.7966C20.2003 17.8817 20.531 17.5553 20.531 17.1473V16.4128H21.2655C21.6693 16.4128 22 16.0864 22 15.6783V1.38389C22 0.975849 21.6736 0.649414 21.2655 0.649414ZM18.3319 12.5042L16.4119 10.305C16.2659 10.1375 16.0082 10.1375 15.8579 10.305L13.5385 12.9594L7.21593 7.34133C7.07848 7.21677 6.86802 7.21677 6.73057 7.34133L0.743069 12.6631V4.6826C0.743069 4.48073 0.906287 4.31751 1.10816 4.31751H17.9668C18.1687 4.31751 18.3319 4.48073 18.3319 4.6826V12.5042ZM19.4358 17.143H19.0707V4.31322C19.0707 3.90947 18.7442 3.57874 18.3362 3.57874H2.20773V3.21365C2.20773 3.01177 2.37095 2.84855 2.57282 2.84855H19.4315C19.6333 2.84855 19.7966 3.01177 19.7966 3.21365L19.8009 16.7779C19.8009 16.9798 19.6376 17.143 19.4358 17.143ZM20.9004 15.674H20.5353V2.84855C20.5353 2.44481 20.2089 2.11408 19.8009 2.11408H3.67239V1.74898C3.67239 1.54711 3.83561 1.38389 4.03749 1.38389H20.8961C21.098 1.38389 21.2612 1.54711 21.2612 1.74898V15.3089H21.2655C21.2655 15.5108 21.1023 15.674 20.9004 15.674Z" fill="white"/>
<path d="M13.2034 6.51233C12.3959 6.51233 11.7388 7.16949 11.7388 7.97699C11.7388 8.78449 12.3959 9.44165 13.2034 9.44165C14.0109 9.44165 14.6681 8.78449 14.6681 7.97699C14.6681 7.16949 14.0109 6.51233 13.2034 6.51233Z" fill="white"/>
</svg>
