<svg width="32" height="25" viewBox="0 0 32 25" fill="none" xmlns="http://www.w3.org/2000/svg">
<path d="M31.5214 13.2999C31.5214 14.1823 30.8052 14.8986 29.9227 14.8986C29.9187 14.8986 29.9131 14.8986 29.9059 14.8986H26.9435V15.0976C26.9435 15.2623 26.9116 15.4165 26.8644 15.5668V23.4013C26.8644 24.2838 26.1482 25 25.2657 25H20.0163C19.1338 25 18.4176 24.2838 18.4176 23.4013V18.8945C18.4176 17.4253 17.2218 16.2303 15.7534 16.2303C14.2842 16.2303 13.0883 17.4253 13.0883 18.8945V23.4013C13.0883 24.2838 12.3721 25 11.4896 25H6.23946C5.35697 25 4.64075 24.2838 4.64075 23.4013V14.8986H1.59921C0.924555 14.8986 0.321842 14.4765 0.0940262 13.8418C-0.13299 13.2063 0.059654 12.4973 0.579234 12.0673L14.7334 0.366304C15.3249 -0.122101 16.1786 -0.122101 16.7702 0.366304L21.1482 3.98418V3.90584C21.1482 3.02336 21.8644 2.30714 22.7469 2.30714H25.3448C26.2273 2.30714 26.9435 3.02336 26.9435 3.90584V8.77471L30.794 11.9585C31.2313 12.2447 31.5214 12.7387 31.5214 13.2999Z" fill="#0051FF"/>
</svg>
