<svg width="35" height="35" viewBox="0 0 35 35" fill="none" xmlns="http://www.w3.org/2000/svg">
<path d="M31.5214 18.2999C31.5214 19.1823 30.8052 19.8986 29.9227 19.8986C29.9187 19.8986 29.9131 19.8986 29.9059 19.8986H26.9435V20.0976C26.9435 20.2623 26.9116 20.4165 26.8644 20.5668V28.4013C26.8644 29.2838 26.1482 30 25.2657 30H20.0163C19.1338 30 18.4176 29.2838 18.4176 28.4013V23.8945C18.4176 22.4253 17.2218 21.2303 15.7534 21.2303C14.2842 21.2303 13.0883 22.4253 13.0883 23.8945V28.4013C13.0883 29.2838 12.3721 30 11.4896 30H6.23946C5.35697 30 4.64075 29.2838 4.64075 28.4013V19.8986H1.59921C0.924555 19.8986 0.321842 19.4765 0.0940262 18.8418C-0.13299 18.2063 0.059654 17.4973 0.579234 17.0673L14.7334 5.3663C15.3249 4.8779 16.1786 4.8779 16.7702 5.3663L21.1482 8.98418V8.90584C21.1482 8.02336 21.8644 7.30714 22.7469 7.30714H25.3448C26.2273 7.30714 26.9435 8.02336 26.9435 8.90584V13.7747L30.794 16.9585C31.2313 17.2447 31.5214 17.7387 31.5214 18.2999Z" fill="white"/>
</svg>
