<svg width="24" height="19" viewBox="0 0 24 19" fill="none" xmlns="http://www.w3.org/2000/svg">
<g clip-path="url(#clip0_1_173)">
<path d="M0.742532 0.0239944C0.403157 0.0899773 0.110657 0.326914 0.028157 0.601341C0.00378202 0.686819 3.20224e-05 1.5356 3.20224e-05 7.9704C3.20224e-05 15.9933 -0.00934298 15.3335 0.118157 15.5269C0.193157 15.6439 0.371282 15.7848 0.517532 15.8463C0.757532 15.9483 0.429407 15.9408 4.95378 15.9408C8.84816 15.9408 9.05628 15.9423 9.05628 15.9663C9.05628 15.9813 9.04316 16.1388 9.02816 16.3157C8.94941 17.2095 8.80691 17.8528 8.62128 18.1527C8.51441 18.3267 8.45066 18.3567 7.98566 18.4526C7.52253 18.5501 7.50003 18.5621 7.50003 18.7166C7.50003 18.7751 7.50941 18.835 7.52066 18.853C7.55066 18.898 7.68566 18.9385 7.91628 18.9715C8.11691 18.9985 8.25941 19 12 19C15.7407 19 15.8832 18.9985 16.0838 18.9715C16.3332 18.937 16.455 18.8965 16.4813 18.8425C16.4925 18.82 16.5 18.7601 16.5 18.7076C16.5 18.5621 16.4719 18.5486 16.0144 18.4526C15.6694 18.3822 15.555 18.3447 15.4819 18.2832C15.2475 18.0867 15.0582 17.3324 14.9625 16.2257C14.9532 16.1058 14.9438 15.9933 14.9438 15.9738V15.9408H19.0463C23.5707 15.9408 23.2425 15.9483 23.4825 15.8463C23.6288 15.7848 23.8069 15.6439 23.8819 15.5269C24.0094 15.3335 24 15.9918 24 7.9749C24 2.75777 23.9944 0.683821 23.9794 0.626835C23.9044 0.337412 23.6044 0.0899773 23.2482 0.0224934C23.1413 0.00299835 21.8625 0 11.9907 0.00149918C2.43753 0.00299835 0.838157 0.00599861 0.742532 0.0239944Z" fill="white"/>
</g>
<defs>
<clipPath id="clip0_1_173">
<rect width="24" height="19" fill="white"/>
</clipPath>
</defs>
</svg>
